<?xml version="1.0" encoding="UTF-8" standalone="no"?>
<!DOCTYPE svg PUBLIC "-//W3C//DTD SVG 1.1//EN"
 "http://www.w3.org/Graphics/SVG/1.1/DTD/svg11.dtd">
<!-- Generated by graphviz version 2.43.0 (0)
 -->
<!-- Title: %3 Pages: 1 -->
<svg width="864pt" height="717pt"
 viewBox="0.00 0.00 864.00 717.27" xmlns="http://www.w3.org/2000/svg" xmlns:xlink="http://www.w3.org/1999/xlink">
<g id="graph0" class="graph" transform="scale(1.4 1.4) rotate(0) translate(4 1003)">
<title>%3</title>
<polygon fill="white" stroke="transparent" points="-4,4 -4,-1003 1209,-1003 1209,4 -4,4"/>
<!-- 140373010272640 -->
<g id="node1" class="node">
<title>140373010272640</title>
<polygon fill="#caff70" stroke="black" points="1098,-31 973,-31 973,0 1098,0 1098,-31"/>
<text text-anchor="middle" x="1035.5" y="-7" font-family="monospace" font-size="10.00"> (100, 64, 21, 21)</text>
</g>
<!-- 140373010192416 -->
<g id="node2" class="node">
<title>140373010192416</title>
<polygon fill="lightgrey" stroke="black" points="1098,-86 973,-86 973,-67 1098,-67 1098,-86"/>
<text text-anchor="middle" x="1035.5" y="-74" font-family="monospace" font-size="10.00">LeakyReluBackward1</text>
</g>
<!-- 140373010192416&#45;&gt;140373010272640 -->
<g id="edge38" class="edge">
<title>140373010192416&#45;&gt;140373010272640</title>
<path fill="none" stroke="black" d="M1035.5,-66.79C1035.5,-60.07 1035.5,-50.4 1035.5,-41.34"/>
<polygon fill="black" stroke="black" points="1039,-41.19 1035.5,-31.19 1032,-41.19 1039,-41.19"/>
</g>
<!-- 140373010194096 -->
<g id="node3" class="node">
<title>140373010194096</title>
<polygon fill="lightgrey" stroke="black" points="1113,-141 958,-141 958,-122 1113,-122 1113,-141"/>
<text text-anchor="middle" x="1035.5" y="-129" font-family="monospace" font-size="10.00">CudnnBatchNormBackward0</text>
</g>
<!-- 140373010194096&#45;&gt;140373010192416 -->
<g id="edge1" class="edge">
<title>140373010194096&#45;&gt;140373010192416</title>
<path fill="none" stroke="black" d="M1035.5,-121.75C1035.5,-114.8 1035.5,-104.85 1035.5,-96.13"/>
<polygon fill="black" stroke="black" points="1039,-96.09 1035.5,-86.09 1032,-96.09 1039,-96.09"/>
</g>
<!-- 140373010191696 -->
<g id="node4" class="node">
<title>140373010191696</title>
<polygon fill="lightgrey" stroke="black" points="967,-196 830,-196 830,-177 967,-177 967,-196"/>
<text text-anchor="middle" x="898.5" y="-184" font-family="monospace" font-size="10.00">ConvolutionBackward0</text>
</g>
<!-- 140373010191696&#45;&gt;140373010194096 -->
<g id="edge2" class="edge">
<title>140373010191696&#45;&gt;140373010194096</title>
<path fill="none" stroke="black" d="M920.51,-176.98C942.95,-168.3 977.98,-154.75 1003.49,-144.88"/>
<polygon fill="black" stroke="black" points="1005.02,-148.04 1013.09,-141.17 1002.5,-141.51 1005.02,-148.04"/>
</g>
<!-- 140373010191600 -->
<g id="node5" class="node">
<title>140373010191600</title>
<polygon fill="lightgrey" stroke="black" points="843,-256.5 718,-256.5 718,-237.5 843,-237.5 843,-256.5"/>
<text text-anchor="middle" x="780.5" y="-244.5" font-family="monospace" font-size="10.00">LeakyReluBackward1</text>
</g>
<!-- 140373010191600&#45;&gt;140373010191696 -->
<g id="edge3" class="edge">
<title>140373010191600&#45;&gt;140373010191696</title>
<path fill="none" stroke="black" d="M797.66,-237.49C817.23,-227.79 849.47,-211.81 872.22,-200.53"/>
<polygon fill="black" stroke="black" points="873.92,-203.59 881.32,-196.02 870.81,-197.32 873.92,-203.59"/>
</g>
<!-- 140373010207792 -->
<g id="node6" class="node">
<title>140373010207792</title>
<polygon fill="lightgrey" stroke="black" points="849,-322.5 694,-322.5 694,-303.5 849,-303.5 849,-322.5"/>
<text text-anchor="middle" x="771.5" y="-310.5" font-family="monospace" font-size="10.00">CudnnBatchNormBackward0</text>
</g>
<!-- 140373010207792&#45;&gt;140373010191600 -->
<g id="edge4" class="edge">
<title>140373010207792&#45;&gt;140373010191600</title>
<path fill="none" stroke="black" d="M772.71,-303.37C774.02,-294.07 776.14,-278.98 777.84,-266.9"/>
<polygon fill="black" stroke="black" points="781.32,-267.3 779.25,-256.91 774.39,-266.32 781.32,-267.3"/>
</g>
<!-- 140373010209040 -->
<g id="node7" class="node">
<title>140373010209040</title>
<polygon fill="lightgrey" stroke="black" points="703,-383 566,-383 566,-364 703,-364 703,-383"/>
<text text-anchor="middle" x="634.5" y="-371" font-family="monospace" font-size="10.00">ConvolutionBackward0</text>
</g>
<!-- 140373010209040&#45;&gt;140373010207792 -->
<g id="edge5" class="edge">
<title>140373010209040&#45;&gt;140373010207792</title>
<path fill="none" stroke="black" d="M654.42,-363.99C677.45,-354.16 715.58,-337.88 742.04,-326.58"/>
<polygon fill="black" stroke="black" points="743.73,-329.66 751.55,-322.52 740.98,-323.22 743.73,-329.66"/>
</g>
<!-- 140373010207408 -->
<g id="node8" class="node">
<title>140373010207408</title>
<polygon fill="lightgrey" stroke="black" points="584,-443.5 393,-443.5 393,-424.5 584,-424.5 584,-443.5"/>
<text text-anchor="middle" x="488.5" y="-431.5" font-family="monospace" font-size="10.00">MaxPool2DWithIndicesBackward0</text>
</g>
<!-- 140373010207408&#45;&gt;140373010209040 -->
<g id="edge6" class="edge">
<title>140373010207408&#45;&gt;140373010209040</title>
<path fill="none" stroke="black" d="M509.73,-424.49C534.49,-414.57 575.62,-398.09 603.85,-386.78"/>
<polygon fill="black" stroke="black" points="605.26,-389.99 613.24,-383.02 602.66,-383.49 605.26,-389.99"/>
</g>
<!-- 140373010207504 -->
<g id="node9" class="node">
<title>140373010207504</title>
<polygon fill="lightgrey" stroke="black" points="551,-509.5 426,-509.5 426,-490.5 551,-490.5 551,-509.5"/>
<text text-anchor="middle" x="488.5" y="-497.5" font-family="monospace" font-size="10.00">LeakyReluBackward1</text>
</g>
<!-- 140373010207504&#45;&gt;140373010207408 -->
<g id="edge7" class="edge">
<title>140373010207504&#45;&gt;140373010207408</title>
<path fill="none" stroke="black" d="M488.5,-490.37C488.5,-481.16 488.5,-466.29 488.5,-454.27"/>
<polygon fill="black" stroke="black" points="492,-453.91 488.5,-443.91 485,-453.91 492,-453.91"/>
</g>
<!-- 140373010208992 -->
<g id="node10" class="node">
<title>140373010208992</title>
<polygon fill="lightgrey" stroke="black" points="566,-570 411,-570 411,-551 566,-551 566,-570"/>
<text text-anchor="middle" x="488.5" y="-558" font-family="monospace" font-size="10.00">CudnnBatchNormBackward0</text>
</g>
<!-- 140373010208992&#45;&gt;140373010207504 -->
<g id="edge8" class="edge">
<title>140373010208992&#45;&gt;140373010207504</title>
<path fill="none" stroke="black" d="M488.5,-550.87C488.5,-542.75 488.5,-530.31 488.5,-519.89"/>
<polygon fill="black" stroke="black" points="492,-519.67 488.5,-509.67 485,-519.67 492,-519.67"/>
</g>
<!-- 140373010209136 -->
<g id="node11" class="node">
<title>140373010209136</title>
<polygon fill="lightgrey" stroke="black" points="420,-625 283,-625 283,-606 420,-606 420,-625"/>
<text text-anchor="middle" x="351.5" y="-613" font-family="monospace" font-size="10.00">ConvolutionBackward0</text>
</g>
<!-- 140373010209136&#45;&gt;140373010208992 -->
<g id="edge9" class="edge">
<title>140373010209136&#45;&gt;140373010208992</title>
<path fill="none" stroke="black" d="M373.51,-605.98C395.95,-597.3 430.98,-583.75 456.49,-573.88"/>
<polygon fill="black" stroke="black" points="458.02,-577.04 466.09,-570.17 455.5,-570.51 458.02,-577.04"/>
</g>
<!-- 140373010207744 -->
<g id="node12" class="node">
<title>140373010207744</title>
<polygon fill="lightgrey" stroke="black" points="301,-685.5 110,-685.5 110,-666.5 301,-666.5 301,-685.5"/>
<text text-anchor="middle" x="205.5" y="-673.5" font-family="monospace" font-size="10.00">MaxPool2DWithIndicesBackward0</text>
</g>
<!-- 140373010207744&#45;&gt;140373010209136 -->
<g id="edge10" class="edge">
<title>140373010207744&#45;&gt;140373010209136</title>
<path fill="none" stroke="black" d="M226.73,-666.49C251.49,-656.57 292.62,-640.09 320.85,-628.78"/>
<polygon fill="black" stroke="black" points="322.26,-631.99 330.24,-625.02 319.66,-625.49 322.26,-631.99"/>
</g>
<!-- 140373010207696 -->
<g id="node13" class="node">
<title>140373010207696</title>
<polygon fill="lightgrey" stroke="black" points="268,-751.5 143,-751.5 143,-732.5 268,-732.5 268,-751.5"/>
<text text-anchor="middle" x="205.5" y="-739.5" font-family="monospace" font-size="10.00">LeakyReluBackward1</text>
</g>
<!-- 140373010207696&#45;&gt;140373010207744 -->
<g id="edge11" class="edge">
<title>140373010207696&#45;&gt;140373010207744</title>
<path fill="none" stroke="black" d="M205.5,-732.37C205.5,-723.16 205.5,-708.29 205.5,-696.27"/>
<polygon fill="black" stroke="black" points="209,-695.91 205.5,-685.91 202,-695.91 209,-695.91"/>
</g>
<!-- 140373010209424 -->
<g id="node14" class="node">
<title>140373010209424</title>
<polygon fill="lightgrey" stroke="black" points="283,-812 128,-812 128,-793 283,-793 283,-812"/>
<text text-anchor="middle" x="205.5" y="-800" font-family="monospace" font-size="10.00">CudnnBatchNormBackward0</text>
</g>
<!-- 140373010209424&#45;&gt;140373010207696 -->
<g id="edge12" class="edge">
<title>140373010209424&#45;&gt;140373010207696</title>
<path fill="none" stroke="black" d="M205.5,-792.87C205.5,-784.75 205.5,-772.31 205.5,-761.89"/>
<polygon fill="black" stroke="black" points="209,-761.67 205.5,-751.67 202,-761.67 209,-761.67"/>
</g>
<!-- 140373010232368 -->
<g id="node15" class="node">
<title>140373010232368</title>
<polygon fill="lightgrey" stroke="black" points="137,-867 0,-867 0,-848 137,-848 137,-867"/>
<text text-anchor="middle" x="68.5" y="-855" font-family="monospace" font-size="10.00">ConvolutionBackward0</text>
</g>
<!-- 140373010232368&#45;&gt;140373010209424 -->
<g id="edge13" class="edge">
<title>140373010232368&#45;&gt;140373010209424</title>
<path fill="none" stroke="black" d="M90.51,-847.98C112.95,-839.3 147.98,-825.75 173.49,-815.88"/>
<polygon fill="black" stroke="black" points="175.02,-819.04 183.09,-812.17 172.5,-812.51 175.02,-819.04"/>
</g>
<!-- 140373010234576 -->
<g id="node16" class="node">
<title>140373010234576</title>
<polygon fill="lightgrey" stroke="black" points="119,-927.5 18,-927.5 18,-908.5 119,-908.5 119,-927.5"/>
<text text-anchor="middle" x="68.5" y="-915.5" font-family="monospace" font-size="10.00">AccumulateGrad</text>
</g>
<!-- 140373010234576&#45;&gt;140373010232368 -->
<g id="edge14" class="edge">
<title>140373010234576&#45;&gt;140373010232368</title>
<path fill="none" stroke="black" d="M68.5,-908.37C68.5,-900.25 68.5,-887.81 68.5,-877.39"/>
<polygon fill="black" stroke="black" points="72,-877.17 68.5,-867.17 65,-877.17 72,-877.17"/>
</g>
<!-- 140371330363456 -->
<g id="node17" class="node">
<title>140371330363456</title>
<polygon fill="lightblue" stroke="black" points="119,-999 18,-999 18,-969 119,-969 119,-999"/>
<text text-anchor="middle" x="68.5" y="-987" font-family="monospace" font-size="10.00">0.weight</text>
<text text-anchor="middle" x="68.5" y="-976" font-family="monospace" font-size="10.00"> (64, 3, 3, 3)</text>
</g>
<!-- 140371330363456&#45;&gt;140373010234576 -->
<g id="edge15" class="edge">
<title>140371330363456&#45;&gt;140373010234576</title>
<path fill="none" stroke="black" d="M68.5,-968.8C68.5,-959.7 68.5,-947.79 68.5,-937.9"/>
<polygon fill="black" stroke="black" points="72,-937.84 68.5,-927.84 65,-937.84 72,-937.84"/>
</g>
<!-- 140373010234288 -->
<g id="node18" class="node">
<title>140373010234288</title>
<polygon fill="lightgrey" stroke="black" points="256,-867 155,-867 155,-848 256,-848 256,-867"/>
<text text-anchor="middle" x="205.5" y="-855" font-family="monospace" font-size="10.00">AccumulateGrad</text>
</g>
<!-- 140373010234288&#45;&gt;140373010209424 -->
<g id="edge16" class="edge">
<title>140373010234288&#45;&gt;140373010209424</title>
<path fill="none" stroke="black" d="M205.5,-847.75C205.5,-840.8 205.5,-830.85 205.5,-822.13"/>
<polygon fill="black" stroke="black" points="209,-822.09 205.5,-812.09 202,-822.09 209,-822.09"/>
</g>
<!-- 140371330363280 -->
<g id="node19" class="node">
<title>140371330363280</title>
<polygon fill="lightblue" stroke="black" points="238,-933 173,-933 173,-903 238,-903 238,-933"/>
<text text-anchor="middle" x="205.5" y="-921" font-family="monospace" font-size="10.00">1.weight</text>
<text text-anchor="middle" x="205.5" y="-910" font-family="monospace" font-size="10.00"> (64)</text>
</g>
<!-- 140371330363280&#45;&gt;140373010234288 -->
<g id="edge17" class="edge">
<title>140371330363280&#45;&gt;140373010234288</title>
<path fill="none" stroke="black" d="M205.5,-902.84C205.5,-895.21 205.5,-885.7 205.5,-877.45"/>
<polygon fill="black" stroke="black" points="209,-877.27 205.5,-867.27 202,-877.27 209,-877.27"/>
</g>
<!-- 140373010231744 -->
<g id="node20" class="node">
<title>140373010231744</title>
<polygon fill="lightgrey" stroke="black" points="375,-867 274,-867 274,-848 375,-848 375,-867"/>
<text text-anchor="middle" x="324.5" y="-855" font-family="monospace" font-size="10.00">AccumulateGrad</text>
</g>
<!-- 140373010231744&#45;&gt;140373010209424 -->
<g id="edge18" class="edge">
<title>140373010231744&#45;&gt;140373010209424</title>
<path fill="none" stroke="black" d="M305.38,-847.98C286.15,-839.42 256.27,-826.11 234.19,-816.28"/>
<polygon fill="black" stroke="black" points="235.53,-813.04 224.97,-812.17 232.68,-819.44 235.53,-813.04"/>
</g>
<!-- 140371330363536 -->
<g id="node21" class="node">
<title>140371330363536</title>
<polygon fill="lightblue" stroke="black" points="351.5,-933 297.5,-933 297.5,-903 351.5,-903 351.5,-933"/>
<text text-anchor="middle" x="324.5" y="-921" font-family="monospace" font-size="10.00">1.bias</text>
<text text-anchor="middle" x="324.5" y="-910" font-family="monospace" font-size="10.00"> (64)</text>
</g>
<!-- 140371330363536&#45;&gt;140373010231744 -->
<g id="edge19" class="edge">
<title>140371330363536&#45;&gt;140373010231744</title>
<path fill="none" stroke="black" d="M324.5,-902.84C324.5,-895.21 324.5,-885.7 324.5,-877.45"/>
<polygon fill="black" stroke="black" points="328,-877.27 324.5,-867.27 321,-877.27 328,-877.27"/>
</g>
<!-- 140373010208896 -->
<g id="node22" class="node">
<title>140373010208896</title>
<polygon fill="lightgrey" stroke="black" points="420,-685.5 319,-685.5 319,-666.5 420,-666.5 420,-685.5"/>
<text text-anchor="middle" x="369.5" y="-673.5" font-family="monospace" font-size="10.00">AccumulateGrad</text>
</g>
<!-- 140373010208896&#45;&gt;140373010209136 -->
<g id="edge20" class="edge">
<title>140373010208896&#45;&gt;140373010209136</title>
<path fill="none" stroke="black" d="M366.84,-666.37C364.32,-658.16 360.44,-645.54 357.21,-635.05"/>
<polygon fill="black" stroke="black" points="360.45,-633.7 354.17,-625.17 353.76,-635.75 360.45,-633.7"/>
</g>
<!-- 140371330364016 -->
<g id="node23" class="node">
<title>140371330364016</title>
<polygon fill="lightblue" stroke="black" points="423,-757 316,-757 316,-727 423,-727 423,-757"/>
<text text-anchor="middle" x="369.5" y="-745" font-family="monospace" font-size="10.00">4.weight</text>
<text text-anchor="middle" x="369.5" y="-734" font-family="monospace" font-size="10.00"> (64, 64, 3, 3)</text>
</g>
<!-- 140371330364016&#45;&gt;140373010208896 -->
<g id="edge21" class="edge">
<title>140371330364016&#45;&gt;140373010208896</title>
<path fill="none" stroke="black" d="M369.5,-726.8C369.5,-717.7 369.5,-705.79 369.5,-695.9"/>
<polygon fill="black" stroke="black" points="373,-695.84 369.5,-685.84 366,-695.84 373,-695.84"/>
</g>
<!-- 140373010209568 -->
<g id="node24" class="node">
<title>140373010209568</title>
<polygon fill="lightgrey" stroke="black" points="539,-625 438,-625 438,-606 539,-606 539,-625"/>
<text text-anchor="middle" x="488.5" y="-613" font-family="monospace" font-size="10.00">AccumulateGrad</text>
</g>
<!-- 140373010209568&#45;&gt;140373010208992 -->
<g id="edge22" class="edge">
<title>140373010209568&#45;&gt;140373010208992</title>
<path fill="none" stroke="black" d="M488.5,-605.75C488.5,-598.8 488.5,-588.85 488.5,-580.13"/>
<polygon fill="black" stroke="black" points="492,-580.09 488.5,-570.09 485,-580.09 492,-580.09"/>
</g>
<!-- 140371330364096 -->
<g id="node25" class="node">
<title>140371330364096</title>
<polygon fill="lightblue" stroke="black" points="521,-691 456,-691 456,-661 521,-661 521,-691"/>
<text text-anchor="middle" x="488.5" y="-679" font-family="monospace" font-size="10.00">5.weight</text>
<text text-anchor="middle" x="488.5" y="-668" font-family="monospace" font-size="10.00"> (64)</text>
</g>
<!-- 140371330364096&#45;&gt;140373010209568 -->
<g id="edge23" class="edge">
<title>140371330364096&#45;&gt;140373010209568</title>
<path fill="none" stroke="black" d="M488.5,-660.84C488.5,-653.21 488.5,-643.7 488.5,-635.45"/>
<polygon fill="black" stroke="black" points="492,-635.27 488.5,-625.27 485,-635.27 492,-635.27"/>
</g>
<!-- 140373010210720 -->
<g id="node26" class="node">
<title>140373010210720</title>
<polygon fill="lightgrey" stroke="black" points="658,-625 557,-625 557,-606 658,-606 658,-625"/>
<text text-anchor="middle" x="607.5" y="-613" font-family="monospace" font-size="10.00">AccumulateGrad</text>
</g>
<!-- 140373010210720&#45;&gt;140373010208992 -->
<g id="edge24" class="edge">
<title>140373010210720&#45;&gt;140373010208992</title>
<path fill="none" stroke="black" d="M588.38,-605.98C569.15,-597.42 539.27,-584.11 517.19,-574.28"/>
<polygon fill="black" stroke="black" points="518.53,-571.04 507.97,-570.17 515.68,-577.44 518.53,-571.04"/>
</g>
<!-- 140371330364176 -->
<g id="node27" class="node">
<title>140371330364176</title>
<polygon fill="lightblue" stroke="black" points="634.5,-691 580.5,-691 580.5,-661 634.5,-661 634.5,-691"/>
<text text-anchor="middle" x="607.5" y="-679" font-family="monospace" font-size="10.00">5.bias</text>
<text text-anchor="middle" x="607.5" y="-668" font-family="monospace" font-size="10.00"> (64)</text>
</g>
<!-- 140371330364176&#45;&gt;140373010210720 -->
<g id="edge25" class="edge">
<title>140371330364176&#45;&gt;140373010210720</title>
<path fill="none" stroke="black" d="M607.5,-660.84C607.5,-653.21 607.5,-643.7 607.5,-635.45"/>
<polygon fill="black" stroke="black" points="611,-635.27 607.5,-625.27 604,-635.27 611,-635.27"/>
</g>
<!-- 140373010210048 -->
<g id="node28" class="node">
<title>140373010210048</title>
<polygon fill="lightgrey" stroke="black" points="703,-443.5 602,-443.5 602,-424.5 703,-424.5 703,-443.5"/>
<text text-anchor="middle" x="652.5" y="-431.5" font-family="monospace" font-size="10.00">AccumulateGrad</text>
</g>
<!-- 140373010210048&#45;&gt;140373010209040 -->
<g id="edge26" class="edge">
<title>140373010210048&#45;&gt;140373010209040</title>
<path fill="none" stroke="black" d="M649.84,-424.37C647.32,-416.16 643.44,-403.54 640.21,-393.05"/>
<polygon fill="black" stroke="black" points="643.45,-391.7 637.17,-383.17 636.76,-393.75 643.45,-391.7"/>
</g>
<!-- 140371330364576 -->
<g id="node29" class="node">
<title>140371330364576</title>
<polygon fill="lightblue" stroke="black" points="706,-515 599,-515 599,-485 706,-485 706,-515"/>
<text text-anchor="middle" x="652.5" y="-503" font-family="monospace" font-size="10.00">8.weight</text>
<text text-anchor="middle" x="652.5" y="-492" font-family="monospace" font-size="10.00"> (64, 64, 3, 3)</text>
</g>
<!-- 140371330364576&#45;&gt;140373010210048 -->
<g id="edge27" class="edge">
<title>140371330364576&#45;&gt;140373010210048</title>
<path fill="none" stroke="black" d="M652.5,-484.8C652.5,-475.7 652.5,-463.79 652.5,-453.9"/>
<polygon fill="black" stroke="black" points="656,-453.84 652.5,-443.84 649,-453.84 656,-453.84"/>
</g>
<!-- 140373010208368 -->
<g id="node30" class="node">
<title>140373010208368</title>
<polygon fill="lightgrey" stroke="black" points="822,-383 721,-383 721,-364 822,-364 822,-383"/>
<text text-anchor="middle" x="771.5" y="-371" font-family="monospace" font-size="10.00">AccumulateGrad</text>
</g>
<!-- 140373010208368&#45;&gt;140373010207792 -->
<g id="edge28" class="edge">
<title>140373010208368&#45;&gt;140373010207792</title>
<path fill="none" stroke="black" d="M771.5,-363.87C771.5,-355.75 771.5,-343.31 771.5,-332.89"/>
<polygon fill="black" stroke="black" points="775,-332.67 771.5,-322.67 768,-332.67 775,-332.67"/>
</g>
<!-- 140371330364656 -->
<g id="node31" class="node">
<title>140371330364656</title>
<polygon fill="lightblue" stroke="black" points="804,-449 739,-449 739,-419 804,-419 804,-449"/>
<text text-anchor="middle" x="771.5" y="-437" font-family="monospace" font-size="10.00">9.weight</text>
<text text-anchor="middle" x="771.5" y="-426" font-family="monospace" font-size="10.00"> (64)</text>
</g>
<!-- 140371330364656&#45;&gt;140373010208368 -->
<g id="edge29" class="edge">
<title>140371330364656&#45;&gt;140373010208368</title>
<path fill="none" stroke="black" d="M771.5,-418.84C771.5,-411.21 771.5,-401.7 771.5,-393.45"/>
<polygon fill="black" stroke="black" points="775,-393.27 771.5,-383.27 768,-393.27 775,-393.27"/>
</g>
<!-- 140373010207168 -->
<g id="node32" class="node">
<title>140373010207168</title>
<polygon fill="lightgrey" stroke="black" points="941,-383 840,-383 840,-364 941,-364 941,-383"/>
<text text-anchor="middle" x="890.5" y="-371" font-family="monospace" font-size="10.00">AccumulateGrad</text>
</g>
<!-- 140373010207168&#45;&gt;140373010207792 -->
<g id="edge30" class="edge">
<title>140373010207168&#45;&gt;140373010207792</title>
<path fill="none" stroke="black" d="M873.2,-363.99C853.45,-354.29 820.95,-338.31 798.01,-327.03"/>
<polygon fill="black" stroke="black" points="799.34,-323.79 788.82,-322.52 796.25,-330.07 799.34,-323.79"/>
</g>
<!-- 140371330364736 -->
<g id="node33" class="node">
<title>140371330364736</title>
<polygon fill="lightblue" stroke="black" points="917.5,-449 863.5,-449 863.5,-419 917.5,-419 917.5,-449"/>
<text text-anchor="middle" x="890.5" y="-437" font-family="monospace" font-size="10.00">9.bias</text>
<text text-anchor="middle" x="890.5" y="-426" font-family="monospace" font-size="10.00"> (64)</text>
</g>
<!-- 140371330364736&#45;&gt;140373010207168 -->
<g id="edge31" class="edge">
<title>140371330364736&#45;&gt;140373010207168</title>
<path fill="none" stroke="black" d="M890.5,-418.84C890.5,-411.21 890.5,-401.7 890.5,-393.45"/>
<polygon fill="black" stroke="black" points="894,-393.27 890.5,-383.27 887,-393.27 894,-393.27"/>
</g>
<!-- 140373010191312 -->
<g id="node34" class="node">
<title>140373010191312</title>
<polygon fill="lightgrey" stroke="black" points="966,-256.5 865,-256.5 865,-237.5 966,-237.5 966,-256.5"/>
<text text-anchor="middle" x="915.5" y="-244.5" font-family="monospace" font-size="10.00">AccumulateGrad</text>
</g>
<!-- 140373010191312&#45;&gt;140373010191696 -->
<g id="edge32" class="edge">
<title>140373010191312&#45;&gt;140373010191696</title>
<path fill="none" stroke="black" d="M912.99,-237.37C910.61,-229.16 906.94,-216.54 903.89,-206.05"/>
<polygon fill="black" stroke="black" points="907.17,-204.79 901.02,-196.17 900.45,-206.75 907.17,-204.79"/>
</g>
<!-- 140371330365136 -->
<g id="node35" class="node">
<title>140371330365136</title>
<polygon fill="lightblue" stroke="black" points="974,-328 867,-328 867,-298 974,-298 974,-328"/>
<text text-anchor="middle" x="920.5" y="-316" font-family="monospace" font-size="10.00">11.weight</text>
<text text-anchor="middle" x="920.5" y="-305" font-family="monospace" font-size="10.00"> (64, 64, 3, 3)</text>
</g>
<!-- 140371330365136&#45;&gt;140373010191312 -->
<g id="edge33" class="edge">
<title>140371330365136&#45;&gt;140373010191312</title>
<path fill="none" stroke="black" d="M919.39,-297.8C918.68,-288.7 917.75,-276.79 916.98,-266.9"/>
<polygon fill="black" stroke="black" points="920.46,-266.54 916.19,-256.84 913.48,-267.09 920.46,-266.54"/>
</g>
<!-- 140373010190640 -->
<g id="node36" class="node">
<title>140373010190640</title>
<polygon fill="lightgrey" stroke="black" points="1086,-196 985,-196 985,-177 1086,-177 1086,-196"/>
<text text-anchor="middle" x="1035.5" y="-184" font-family="monospace" font-size="10.00">AccumulateGrad</text>
</g>
<!-- 140373010190640&#45;&gt;140373010194096 -->
<g id="edge34" class="edge">
<title>140373010190640&#45;&gt;140373010194096</title>
<path fill="none" stroke="black" d="M1035.5,-176.75C1035.5,-169.8 1035.5,-159.85 1035.5,-151.13"/>
<polygon fill="black" stroke="black" points="1039,-151.09 1035.5,-141.09 1032,-151.09 1039,-151.09"/>
</g>
<!-- 140371330365216 -->
<g id="node37" class="node">
<title>140371330365216</title>
<polygon fill="lightblue" stroke="black" points="1071,-262 1000,-262 1000,-232 1071,-232 1071,-262"/>
<text text-anchor="middle" x="1035.5" y="-250" font-family="monospace" font-size="10.00">12.weight</text>
<text text-anchor="middle" x="1035.5" y="-239" font-family="monospace" font-size="10.00"> (64)</text>
</g>
<!-- 140371330365216&#45;&gt;140373010190640 -->
<g id="edge35" class="edge">
<title>140371330365216&#45;&gt;140373010190640</title>
<path fill="none" stroke="black" d="M1035.5,-231.84C1035.5,-224.21 1035.5,-214.7 1035.5,-206.45"/>
<polygon fill="black" stroke="black" points="1039,-206.27 1035.5,-196.27 1032,-206.27 1039,-206.27"/>
</g>
<!-- 140373010192944 -->
<g id="node38" class="node">
<title>140373010192944</title>
<polygon fill="lightgrey" stroke="black" points="1205,-196 1104,-196 1104,-177 1205,-177 1205,-196"/>
<text text-anchor="middle" x="1154.5" y="-184" font-family="monospace" font-size="10.00">AccumulateGrad</text>
</g>
<!-- 140373010192944&#45;&gt;140373010194096 -->
<g id="edge36" class="edge">
<title>140373010192944&#45;&gt;140373010194096</title>
<path fill="none" stroke="black" d="M1135.38,-176.98C1116.15,-168.42 1086.27,-155.11 1064.19,-145.28"/>
<polygon fill="black" stroke="black" points="1065.53,-142.04 1054.97,-141.17 1062.68,-148.44 1065.53,-142.04"/>
</g>
<!-- 140371330365296 -->
<g id="node39" class="node">
<title>140371330365296</title>
<polygon fill="lightblue" stroke="black" points="1184,-262 1125,-262 1125,-232 1184,-232 1184,-262"/>
<text text-anchor="middle" x="1154.5" y="-250" font-family="monospace" font-size="10.00">12.bias</text>
<text text-anchor="middle" x="1154.5" y="-239" font-family="monospace" font-size="10.00"> (64)</text>
</g>
<!-- 140371330365296&#45;&gt;140373010192944 -->
<g id="edge37" class="edge">
<title>140371330365296&#45;&gt;140373010192944</title>
<path fill="none" stroke="black" d="M1154.5,-231.84C1154.5,-224.21 1154.5,-214.7 1154.5,-206.45"/>
<polygon fill="black" stroke="black" points="1158,-206.27 1154.5,-196.27 1151,-206.27 1158,-206.27"/>
</g>
</g>
</svg>
